<?xml version="1.0" encoding="UTF-8" standalone="no"?>
<!-- Creator: CorelDRAW X8 -->

<svg
   xmlns:dc="http://purl.org/dc/elements/1.1/"
   xmlns:cc="http://creativecommons.org/ns#"
   xmlns:rdf="http://www.w3.org/1999/02/22-rdf-syntax-ns#"
   xmlns:svg="http://www.w3.org/2000/svg"
   xmlns="http://www.w3.org/2000/svg"
   xmlns:sodipodi="http://sodipodi.sourceforge.net/DTD/sodipodi-0.dtd"
   xmlns:inkscape="http://www.inkscape.org/namespaces/inkscape"
   xml:space="preserve"
   width="400"
   height="294.62161"
   version="1.1"
   style="clip-rule:evenodd;fill-rule:evenodd;image-rendering:optimizeQuality;shape-rendering:geometricPrecision;text-rendering:geometricPrecision"
   viewBox="0 0 10583.066 7794.8961"
   id="svg322"
   sodipodi:docname="guacamanayo.svg"
   inkscape:version="0.92.2 2405546, 2018-03-11"><metadata
   id="metadata326"><rdf:RDF><cc:Work
       rdf:about=""><dc:format>image/svg+xml</dc:format><dc:type
         rdf:resource="http://purl.org/dc/dcmitype/StillImage" /><dc:title></dc:title></cc:Work></rdf:RDF></metadata><sodipodi:namedview
   pagecolor="#ffffff"
   bordercolor="#666666"
   borderopacity="1"
   objecttolerance="10"
   gridtolerance="10"
   guidetolerance="10"
   inkscape:pageopacity="0"
   inkscape:pageshadow="2"
   inkscape:window-width="1920"
   inkscape:window-height="1051"
   id="namedview324"
   showgrid="false"
   fit-margin-top="0"
   fit-margin-left="0"
   fit-margin-right="0"
   fit-margin-bottom="0"
   inkscape:zoom="1.5479955"
   inkscape:cx="423.59682"
   inkscape:cy="173.8371"
   inkscape:window-x="0"
   inkscape:window-y="0"
   inkscape:window-maximized="1"
   inkscape:current-layer="svg322"
   units="px" />
 <defs
   id="defs4">
  <style
   type="text/css"
   id="style2">
   <![CDATA[
    .fil0 {fill:none}
    .fil2 {fill:#FEFEFE}
    .fil26 {fill:#FDE5A9}
    .fil18 {fill:#F7C199}
    .fil11 {fill:#EE8536}
    .fil9 {fill:#FCEF0F}
    .fil19 {fill:#F1A54C}
    .fil21 {fill:#DC3F6A}
    .fil20 {fill:#EED14B}
    .fil24 {fill:#C97D2E}
    .fil6 {fill:#AB2933}
    .fil1 {fill:#BAE1ED}
    .fil22 {fill:#AD73AE}
    .fil15 {fill:#AC5133}
    .fil5 {fill:#A3CA28}
    .fil3 {fill:#97D1E3}
    .fil16 {fill:#92569D}
    .fil23 {fill:#862F59}
    .fil12 {fill:#684388}
    .fil8 {fill:#0E9966}
    .fil7 {fill:#1C707B}
    .fil17 {fill:#222428}
    .fil25 {fill:#28436F}
    .fil14 {fill:#252D3F}
    .fil13 {fill:white}
    .fil10 {fill:white}
    .fil28 {fill:#FEFEFE;fill-rule:nonzero}
    .fil27 {fill:#684388;fill-rule:nonzero}
    .fil29 {fill:#0C8C9C;fill-rule:nonzero}
    .fil4 {fill:#28436F;fill-rule:nonzero}
    .fil30 {fill:#252D3F;fill-rule:nonzero}
   ]]>
  </style>
 
  
  
  
  
  
  
  
  
  
  
  
  
  
  
  
  
  
  
  
  
  
  
  
  
  
  
  
  
  
  
  
  
  
  
  
  
  
  
  
  
  
  
  
  
  
  
  
  
  
  
  
  
  
  
  
  
  
  
  
  
  
  
  
  
  
  
  
  
  
  
  
  
  
  
  
  
  
  
  
  
  
  
  
  
  
  
  
  
  
  
  
  
  
  
  
  
  
  
  
  
  
  
  
  
  
  
  
  
  
  
  
  
  
  
  
  
  
  
  
  
  
  
  
  
  
  
  
  
  
  
  
  
  
  
  
  
  
  
  
  
  
  
  
  
  
  
  
  
  
  
  
  
  
  
  
  
  
  
  
  
  
  
  
  
 </defs>
 <rect
   style="fill:none"
   y="-165.05574"
   x="-3651"
   id="rect7"
   height="8297"
   width="11853"
   class="fil0" /><g
   id="g5152"
   transform="translate(2664.066)"><polygon
     transform="translate(-3651,-165.05573)"
     class="fil5"
     points="7550,6032 8399,7752 8576,7799 8367,7021 8215,6980 7554,5394 7066,5239 7020,5725 7229,5970 7468,6923 7873,7544 "
     id="polygon27"
     style="fill:#a3ca28" /><polygon
     transform="translate(-3651,-165.05573)"
     class="fil6"
     points="7251,5298 7053,5377 7020,5725 7229,5970 7468,6923 7573,7083 7377,6354 7377,5338 "
     id="polygon29"
     style="fill:#ab2933" /><polygon
     transform="translate(-3651,-165.05573)"
     class="fil7"
     points="7456,5701 7525,5441 7800,5427 8530,6372 9305,7575 9332,7960 8406,6839 8408,6791 8363,6805 8109,6458 8339,6982 8107,7116 "
     id="polygon31"
     style="fill:#1c707b" /><polygon
     transform="translate(-3651,-165.05573)"
     class="fil8"
     points="8229,2544 7748,2673 6780,2239 7398,2146 8041,2043 8153,2462 7745,2571 8212,2481 "
     id="polygon33"
     style="fill:#0e9966" /><polygon
     transform="translate(-3651,-165.05573)"
     class="fil9"
     points="4676,1425 4455,2023 4741,2642 4853,2680 4813,2130 4713,2038 4787,2190 4787,2380 4561,2026 "
     id="polygon35"
     style="fill:#fcef0f" /><polygon
     transform="translate(-3651,-165.05573)"
     class="fil10"
     points="8052,5427 10437,7276 11085,7709 11079,7756 9649,6985 10386,7418 10255,7549 9324,6985 9347,6901 9248,6945 8803,6455 8561,6523 8490,6453 7988,5430 "
     id="polygon37"
     style="fill:#ffffff" /><polygon
     transform="translate(-3651,-165.05573)"
     class="fil8"
     points="9013,5669 8559,5417 8619,5242 9259,5453 10374,5364 "
     id="polygon39"
     style="fill:#0e9966" /><polygon
     transform="translate(-3651,-165.05573)"
     class="fil9"
     points="8420,6036 8929,6592 8514,6592 7582,5406 8015,5268 9289,6282 10491,7024 11466,7459 11448,7492 10216,6947 11211,7437 10961,7582 9314,6753 9288,6656 9194,6681 "
     id="polygon41"
     style="fill:#fcef0f" /><polygon
     transform="translate(-3651,-165.05573)"
     class="fil11"
     points="7231,6983 7292,7023 7292,6225 7128,5565 7186,5348 7051,5269 7014,5813 "
     id="polygon43"
     style="fill:#ee8536" /><polygon
     transform="translate(-3651,-165.05573)"
     class="fil2"
     points="7226,5435 7226,5689 7086,5651 7170,5336 7270,5388 7270,5423 "
     id="polygon45"
     style="fill:#fefefe" /><polygon
     transform="translate(-3651,-165.05573)"
     class="fil12"
     points="6995,5910 7010,5910 7010,6542 7222,7042 7292,7023 7035,5841 7190,5262 6661,5164 6821,5326 6821,6180 6951,6506 "
     id="polygon47"
     style="fill:#684388" /><polygon
     transform="translate(-3651,-165.05573)"
     class="fil10"
     points="6652,5280 6821,5326 6750,5203 6610,5203 "
     id="polygon49"
     style="fill:#ffffff" /><polygon
     transform="translate(-3651,-165.05573)"
     class="fil13"
     points="8411,6326 7734,5502 7513,5487 8169,6326 8305,6326 8208,6202 8346,6326 "
     id="polygon51"
     style="fill:#ffffff" /><polygon
     transform="translate(-3651,-165.05573)"
     class="fil14"
     points="6137,6068 6137,5986 6151,5982 6116,5921 6065,5925 5984,6169 6066,6267 6021,6159 "
     id="polygon53"
     style="fill:#252d3f" /><polygon
     transform="translate(-3651,-165.05573)"
     class="fil15"
     points="8170,5919 7822,5508 7396,5327 7251,5397 7263,5454 7881,5857 7678,5605 7698,5598 7872,5815 "
     id="polygon55"
     style="fill:#ac5133" /><polygon
     transform="translate(-3651,-165.05573)"
     class="fil12"
     points="7679,5546 8449,5823 7862,5236 7448,5125 "
     id="polygon57"
     style="fill:#684388" /><polygon
     transform="translate(-3651,-165.05573)"
     class="fil16"
     points="7157,1810 7654,1408 7709,1274 7862,1222 8245,653 7534,1005 6968,1583 "
     id="polygon59"
     style="fill:#92569d" /><polygon
     transform="translate(-3651,-165.05573)"
     class="fil8"
     points="8248,5012 8559,5192 8559,5417 8094,5123 "
     id="polygon61"
     style="fill:#0e9966" /><polygon
     transform="translate(-3651,-165.05573)"
     class="fil6"
     points="9022,5753 8810,5631 9762,6286 10633,6520 10669,6655 9690,6386 10529,6892 11309,7019 11032,7179 10451,6970 10789,7128 10776,7155 9614,6621 8282,5542 8798,6012 8774,6038 8032,5368 7662,5057 7792,4927 8047,5044 8856,5540 9336,5668 "
     id="polygon63"
     style="fill:#ab2933" /><polygon
     transform="translate(-3651,-165.05573)"
     class="fil8"
     points="6821,5493 6610,5415 6614,5227 6821,5367 6821,5424 6761,5398 6821,5446 "
     id="polygon65"
     style="fill:#0e9966" /><polygon
     transform="translate(-3651,-165.05573)"
     class="fil8"
     points="8854,4772 8911,4843 7921,4843 8033,4908 8997,4908 8897,4966 7880,4966 7426,4591 7553,4452 7720,4534 8050,4773 "
     id="polygon67"
     style="fill:#0e9966" /><polygon
     transform="translate(-3651,-165.05573)"
     class="fil2"
     points="6285,1189 5864,1674 6226,1960 6643,1470 "
     id="polygon69"
     style="fill:#fefefe" /><polygon
     transform="translate(-3651,-165.05573)"
     class="fil7"
     points="6175,1566 6245,1650 6515,1371 6421,1318 "
     id="polygon71"
     style="fill:#1c707b" /><polygon
     transform="translate(-3651,-165.05573)"
     class="fil12"
     points="6342,5681 6395,5736 6417,5773 6397,5848 6494,5913 6516,5821 6417,5638 "
     id="polygon73"
     style="fill:#684388" /><polygon
     transform="translate(-3651,-165.05573)"
     class="fil7"
     points="6292,5785 6340,5806 6385,5749 6340,5641 6294,5628 6162,5735 6081,5912 6151,5983 "
     id="polygon75"
     style="fill:#1c707b" /><polygon
     transform="translate(-3651,-165.05573)"
     class="fil17"
     points="6348,6072 6348,5909 6409,5759 6368,5689 6420,5660 6513,5822 6449,5978 6537,5883 6493,5730 6749,5691 6796,5587 6745,5464 6513,5485 6552,5562 6588,5562 6307,5620 6371,5732 6260,5837 6253,5974 6279,5984 6248,6007 6251,6150 6284,6178 6244,6288 6255,6291 6317,6187 6317,6137 "
     id="polygon77"
     style="fill:#222428" /><polygon
     transform="translate(-3651,-165.05573)"
     class="fil18"
     points="4358,2100 4135,2006 3653,1372 3709,1161 4009,1369 3729,1088 3760,970 4277,1588 4264,1653 4298,1653 "
     id="polygon79"
     style="fill:#f7c199" /><polygon
     transform="translate(-3651,-165.05573)"
     class="fil17"
     points="6579,5227 6732,5268 6961,5268 7243,5430 7425,5382 7425,5456 7933,5637 7563,5207 7800,5427 8091,5427 7761,5096 8166,5442 8864,5629 8976,5599 8820,5599 7897,5066 7780,4863 7434,4655 7070,4836 6768,4444 6016,4572 6156,4910 6305,5210 "
     id="polygon81"
     style="fill:#222428" /><polygon
     transform="translate(-3651,-165.05573)"
     class="fil14"
     points="7443,5147 7633,5338 7170,5338 7158,5381 7243,5430 7425,5382 7425,5456 7933,5637 7563,5207 7800,5427 8091,5427 7761,5096 8166,5442 8864,5629 8976,5599 8820,5599 7897,5066 7780,4863 7468,4676 7400,4671 7204,4770 7161,4817 7324,5077 7443,4854 "
     id="polygon83"
     style="fill:#252d3f" /><polygon
     transform="translate(-3651,-165.05573)"
     class="fil19"
     points="7057,5146 7070,5279 7062,5283 6988,5283 6988,5284 6967,5171 6947,5074 7023,5002 7072,5027 7051,5121 7028,5121 "
     id="polygon85"
     style="fill:#f1a54c" /><polygon
     transform="translate(-3651,-165.05573)"
     class="fil7"
     points="6475,4899 6517,4972 6517,4902 6578,4903 6575,4820 6546,4792 "
     id="polygon87"
     style="fill:#1c707b" /><polygon
     transform="translate(-3651,-165.05573)"
     class="fil2"
     points="6561,4898 6930,4817 7161,4817 7073,4778 6987,4801 6933,4801 6874,4785 6565,4785 "
     id="polygon89"
     style="fill:#fefefe" /><polygon
     transform="translate(-3651,-165.05573)"
     class="fil6"
     points="6951,3538 7451,3924 8005,4244 8073,4496 7355,4304 7991,4579 8777,4366 8008,4648 6973,4370 6545,3838 "
     id="polygon91"
     style="fill:#ab2933" /><polygon
     transform="translate(-3651,-165.05573)"
     class="fil2"
     points="8911,4843 7830,4843 7733,4787 7913,4944 8438,4944 8109,5134 7170,4591 6771,4154 6886,4077 7970,4800 8869,4800 "
     id="polygon93"
     style="fill:#fefefe" /><polygon
     transform="translate(-3651,-165.05573)"
     class="fil6"
     points="8139,1693 8052,2018 7318,2187 7071,1811 7752,1276 8279,1099 8097,1545 7489,1764 "
     id="polygon95"
     style="fill:#ab2933" /><polygon
     transform="translate(-3651,-165.05573)"
     class="fil9"
     points="6907,4804 7126,4804 7256,4999 7186,5050 6986,4991 6899,5015 6690,4984 6791,4936 6861,4943 6942,4853 6753,4903 6753,4867 6732,4903 6586,4935 6516,4900 "
     id="polygon97"
     style="fill:#fcef0f" /><polygon
     transform="translate(-3651,-165.05573)"
     class="fil15"
     points="6732,5031 6768,5010 6934,5028 6967,5018 6929,5075 6967,5171 6988,5283 7042,5283 6959,5100 7031,5035 7103,5088 7204,5007 7038,4911 6907,5006 6738,4961 6642,5006 "
     id="polygon99"
     style="fill:#ac5133" /><polygon
     transform="translate(-3651,-165.05573)"
     class="fil20"
     points="7228,5183 7083,5072 7137,4968 7278,5032 7366,5004 7366,5137 "
     id="polygon101"
     style="fill:#eed14b" /><polygon
     transform="translate(-3651,-165.05573)"
     class="fil21"
     points="7137,4968 7218,4978 7253,4801 7366,5004 7324,5077 "
     id="polygon103"
     style="fill:#dc3f6a" /><path
     class="fil5"
     d="m 3098,885.9443 525,-715.00004 401,-106.999998 -147,546.999998 -577,154 h 780 l -817,818.00004 -769,-538 z m 299,720 -60,-55 491,-490 165,95 z"
     id="path105"
     inkscape:connector-curvature="0"
     style="fill:#a3ca28" /><polygon
     transform="translate(-3651,-165.05573)"
     class="fil18"
     points="6098,1175 6246,734 6556,165 6750,327 6750,462 6804,369 7098,539 6652,1194 6391,1043 6145,1210 "
     id="polygon107"
     style="fill:#f7c199" /><polygon
     transform="translate(-3651,-165.05573)"
     class="fil17"
     points="8202,2793 8284,3179 7845,3297 7075,3280 6012,2588 6555,2644 6360,2549 6647,2257 7134,2189 7948,2430 8039,2430 8130,2637 8073,2693 7805,2693 "
     id="polygon109"
     style="fill:#222428" /><polygon
     transform="translate(-3651,-165.05573)"
     class="fil9"
     points="7383,2118 6997,1448 6737,1518 7115,1300 7050,1235 5735,1994 5823,2643 6442,2462 6973,2555 6973,2315 6699,2315 "
     id="polygon111"
     style="fill:#fcef0f" /><polygon
     transform="translate(-3651,-165.05573)"
     class="fil5"
     points="7007,2486 7007,2374 7538,2374 7449,2528 "
     id="polygon113"
     style="fill:#a3ca28" /><polygon
     transform="translate(-3651,-165.05573)"
     class="fil6"
     points="6219,5113 6656,5247 6767,5517 6684,5565 6626,5508 6626,5546 6557,5546 6522,5511 6533,5555 6413,5427 "
     id="polygon115"
     style="fill:#ab2933" /><polygon
     transform="translate(-3651,-165.05573)"
     class="fil14"
     points="5849,2968 6412,3755 7500,3456 8148,3456 8267,3250 7341,3250 6838,2960 6716,2960 6761,2915 6049,2504 "
     id="polygon117"
     style="fill:#252d3f" /><polygon
     transform="translate(-3651,-165.05573)"
     class="fil7"
     points="6714,2446 6342,2073 5894,2332 6068,2589 7025,2845 8033,2845 6360,2549 7719,2697 8037,2446 "
     id="polygon119"
     style="fill:#1c707b" /><polygon
     transform="translate(-3651,-165.05573)"
     class="fil12"
     points="8288,3539 7868,3601 6910,3048 6882,3649 7593,4087 8283,4087 8337,3888 7860,3888 8345,3835 "
     id="polygon121"
     style="fill:#684388" /><polygon
     transform="translate(-3651,-165.05573)"
     class="fil22"
     points="6145,1155 6155,1168 6374,947 6534,904 6345,1231 6235,1231 6235,1625 6521,1338 6569,1366 6271,1663 6004,1663 6004,1885 5826,2140 5625,2054 5805,1488 6098,1034 6283,658 6324,667 6186,1016 6326,723 6372,924 "
     id="polygon123"
     style="fill:#ad73ae" /><polygon
     transform="translate(-3651,-165.05573)"
     class="fil2"
     points="6885,3592 7429,3906 7587,3632 7010,3477 "
     id="polygon125"
     style="fill:#fefefe" /><path
     class="fil12"
     d="m 890,3322.9443 24,-36 h 37 l 166,-242 -10,-7 -146,129 -166,7 -123,-213 248,-474 539,517 3,365 -229,95 z m 451,-116 -136,141 75,-188 z"
     id="path127"
     inkscape:connector-curvature="0"
     style="fill:#684388" /><polygon
     transform="translate(-3651,-165.05573)"
     class="fil21"
     points="4879,2922 4617,2508 4255,2585 4246,2609 4178,2726 4345,2984 4622,2708 4412,2973 4471,3032 "
     id="polygon129"
     style="fill:#dc3f6a" /><polygon
     transform="translate(-3651,-165.05573)"
     class="fil16"
     points="4312,1957 4498,2261 4420,2392 4258,2354 4074,2170 4104,2119 4049,2151 3651,1802 "
     id="polygon131"
     style="fill:#92569d" /><polygon
     transform="translate(-3651,-165.05573)"
     class="fil6"
     points="4457,2327 4617,2601 4403,2724 4252,2684 4252,2598 4205,2680 4138,2635 4161,2550 4084,2594 3771,2327 "
     id="polygon133"
     style="fill:#ab2933" /><polygon
     transform="translate(-3651,-165.05573)"
     class="fil18"
     points="7299,4002 7479,4138 7447,4193 6770,3802 6883,3626 7467,3963 7988,3963 7609,4181 "
     id="polygon135"
     style="fill:#f7c199" /><polygon
     transform="translate(-3651,-165.05573)"
     class="fil7"
     points="5800,1597 5928,1751 5707,2062 5548,2373 5465,2373 5465,2191 5609,1846 5639,1838 5616,1825 5848,1333 6098,1034 6104,1040 "
     id="polygon137"
     style="fill:#1c707b" /><polygon
     transform="translate(-3651,-165.05573)"
     class="fil21"
     points="5681,2113 5548,2373 5465,2373 5465,2191 5497,2113 "
     id="polygon139"
     style="fill:#dc3f6a" /><polygon
     transform="translate(-3651,-165.05573)"
     class="fil9"
     points="4291,1653 4291,1842 4292,1916 4215,1960 4305,2073 4323,2068 4317,2088 4434,2233 4373,2289 4420,2392 4644,2205 4365,1703 4328,1653 "
     id="polygon141"
     style="fill:#fcef0f" /><polygon
     transform="translate(-3651,-165.05573)"
     class="fil21"
     points="6256,4843 6055,4977 6055,5076 6188,5113 6413,5427 6518,5487 6250,5139 6656,5247 6732,5247 6305,5133 6604,5183 6776,5083 6442,4994 6442,4843 "
     id="polygon143"
     style="fill:#dc3f6a" /><polygon
     transform="translate(-3651,-165.05573)"
     class="fil5"
     points="6332,3517 5958,3368 6030,3108 6188,3017 6423,3359 "
     id="polygon145"
     style="fill:#a3ca28" /><polygon
     transform="translate(-3651,-165.05573)"
     class="fil12"
     points="6153,2688 6251,2786 6164,2873 6027,2794 6211,2985 6025,3093 5646,2747 5583,2747 5469,2416 5743,2009 6027,2173 6027,2394 6076,2345 6240,2440 6229,2688 "
     id="polygon147"
     style="fill:#684388" /><polygon
     transform="translate(-3651,-165.05573)"
     class="fil16"
     points="7272,4932 7240,4923 7249,4960 7218,4978 7068,4801 6963,4801 6776,4563 6289,4563 6190,4733 6065,4516 6591,4191 7001,4387 7254,4387 7536,4582 7489,4759 7280,4759 7322,4801 7297,4827 7253,4801 7308,4897 "
     id="polygon149"
     style="fill:#92569d" /><polygon
     transform="translate(-3651,-165.05573)"
     class="fil11"
     points="6683,3784 5841,3694 5908,4266 6120,4601 6488,4389 6758,4545 7131,4356 6938,4163 7020,4163 7020,4050 6864,3894 6780,3943 "
     id="polygon151"
     style="fill:#ee8536" /><polygon
     transform="translate(-3651,-165.05573)"
     class="fil21"
     points="6770,3331 6476,3655 6751,3496 7151,3580 6740,3877 6095,3877 5971,3754 5971,4095 6643,4275 6007,4642 5596,4231 5745,3357 5586,2763 5851,2476 6117,3174 6098,3200 6161,3199 6291,3477 6704,3367 6721,3303 "
     id="polygon153"
     style="fill:#dc3f6a" /><polygon
     transform="translate(-3651,-165.05573)"
     class="fil7"
     points="4395,4304 4381,4310 4251,3987 4291,3715 4352,3656 "
     id="polygon155"
     style="fill:#1c707b" /><polygon
     transform="translate(-3651,-165.05573)"
     class="fil21"
     points="4291,3715 4352,3656 4374,3987 4251,3987 "
     id="polygon157"
     style="fill:#dc3f6a" /><path
     class="fil23"
     d="m 1585,4377.9443 37,140 116,87 42,-11 v 23 l 598,293 402,-232 -446,-446 -145,-39 68,-40 v -309 h -222 l -428,440 z m 577,-667 10,76 h 86 v -76 z"
     id="path159"
     inkscape:connector-curvature="0"
     style="fill:#862f59" /><polygon
     transform="translate(-3651,-165.05573)"
     class="fil24"
     points="4596,2322 4677,2346 4735,2347 4832,2468 4845,2596 4793,2488 4752,2574 4815,2611 4744,2680 4578,2595 "
     id="polygon161"
     style="fill:#c97d2e" /><path
     class="fil12"
     d="m 1129,2349.9443 -28,59 63,37 -41,41 c -28,-6 -54,-16 -56,-33 v -233 l 83,83 z"
     id="path163"
     inkscape:connector-curvature="0"
     style="fill:#684388" /><polygon
     transform="translate(-3651,-165.05573)"
     class="fil5"
     points="4631,2648 4571,2652 4518,2641 4415,2377 4521,2149 4586,2149 4539,2230 4613,2156 4725,2334 4631,2389 "
     id="polygon165"
     style="fill:#a3ca28" /><polygon
     transform="translate(-3651,-165.05573)"
     class="fil24"
     points="4582,2645 4471,2441 4487,2337 4604,2637 "
     id="polygon167"
     style="fill:#c97d2e" /><polygon
     transform="translate(-3651,-165.05573)"
     class="fil16"
     points="5676,4474 5835,4223 5835,4135 5788,4123 5841,4092 5841,3694 5759,3679 5211,3647 5153,4182 5385,4375 5473,4527 5627,4527 5627,4461 "
     id="polygon169"
     style="fill:#92569d" /><polygon
     transform="translate(-3651,-165.05573)"
     class="fil12"
     points="5754,4170 5378,4270 5363,4357 5385,4375 5411,4420 5609,4420 "
     id="polygon171"
     style="fill:#684388" /><polygon
     transform="translate(-3651,-165.05573)"
     class="fil25"
     points="4662,2768 4607,2651 4617,2601 4737,2601 4743,2625 4775,2588 5029,2735 5186,2735 5194,2750 5106,2839 "
     id="polygon173"
     style="fill:#28436f" /><polygon
     transform="translate(-3651,-165.05573)"
     class="fil7"
     points="5095,3632 5038,3520 4788,3076 4526,2657 4601,2603 4665,2713 4988,2713 5079,2804 5245,2804 5245,2842 "
     id="polygon175"
     style="fill:#1c707b" /><polygon
     transform="translate(-3651,-165.05573)"
     class="fil14"
     points="5656,3014 5660,3026 5481,3122 5531,3122 5745,3357 5786,3683 5471,3693 5076,3576 4802,3074 4968,2908 5033,2925 5033,2828 5308,2828 5251,2885 5260,2890 5292,2858 5433,2895 5396,2933 5456,2916 "
     id="polygon177"
     style="fill:#252d3f" /><polygon
     transform="translate(-3651,-165.05573)"
     class="fil14"
     points="5268,4692 5231,4713 5205,4615 5189,4674 5122,4656 5101,4620 5091,4655 5035,4622 4980,4419 4837,4383 5120,4045 5388,4098 5497,4161 5377,4610 5274,4610 5235,4571 "
     id="polygon179"
     style="fill:#000000" /><polygon
     transform="translate(-3651,-165.05573)"
     class="fil5"
     points="5449,4134 5275,4180 5246,4113 5149,4056 4895,4025 4801,3694 5236,3689 5564,3777 5564,3934 5488,3934 5640,3975 5666,4072 5580,3986 5423,4077 5288,4041 "
     id="polygon181"
     style="fill:#a3ca28" /><polygon
     transform="translate(-3651,-165.05573)"
     class="fil19"
     points="5526,3642 5786,3683 5786,3808 5365,3695 5054,3779 4526,3556 4571,3482 4776,3450 5211,3552 5489,3644 5480,3663 "
     id="polygon183"
     style="fill:#f1a54c" /><polygon
     transform="translate(-3651,-165.05573)"
     class="fil11"
     points="4776,3450 5211,3552 5211,3695 4856,3695 4526,3556 4571,3482 "
     id="polygon185"
     style="fill:#ee8536" /><polygon
     transform="translate(-3651,-165.05573)"
     class="fil15"
     points="4615,3610 4331,3679 4310,3616 4392,3502 4406,3509 4425,3484 4772,3440 5211,3552 4762,3470 4615,3517 "
     id="polygon187"
     style="fill:#ac5133" /><polygon
     transform="translate(-3651,-165.05573)"
     class="fil6"
     points="4526,3556 4615,3556 4615,3610 4331,3679 4310,3616 4392,3502 4406,3509 4425,3484 4481,3477 "
     id="polygon189"
     style="fill:#ab2933" /><polygon
     transform="translate(-3651,-165.05573)"
     class="fil16"
     points="4659,3872 4720,3946 4814,3901 4751,3831 "
     id="polygon191"
     style="fill:#92569d" /><polygon
     transform="translate(-3651,-165.05573)"
     class="fil20"
     points="4590,3798 4681,3885 4767,3827 4594,3591 4520,3591 4471,3563 4337,3653 4324,3705 "
     id="polygon193"
     style="fill:#eed14b" /><polygon
     transform="translate(-3651,-165.05573)"
     class="fil12"
     points="4531,3629 4529,3637 4494,3648 4445,3619 4473,3590 "
     id="polygon195"
     style="fill:#684388" /><polygon
     transform="translate(-3651,-165.05573)"
     class="fil5"
     points="4635,3595 4753,3825 4719,3828 4649,3757 4407,3652 4513,3652 4528,3595 "
     id="polygon197"
     style="fill:#a3ca28" /><polygon
     transform="translate(-3651,-165.05573)"
     class="fil7"
     points="4551,4449 4381,4310 4359,4240 4503,4198 4503,4310 4557,4443 "
     id="polygon199"
     style="fill:#1c707b" /><polygon
     transform="translate(-3651,-165.05573)"
     class="fil2"
     points="4452,4352 4374,4286 4272,3976 4301,3719 4352,3656 4480,3709 4590,3770 4653,3837 4700,3920 4589,4063 4494,4212 4494,4324 4495,4327 "
     id="polygon201"
     style="fill:#fefefe" /><polygon
     transform="translate(-3651,-165.05573)"
     class="fil26"
     points="4386,3701 4566,3805 4650,3985 4589,4063 4494,4212 4494,4324 4495,4327 4482,4334 4386,4129 "
     id="polygon203"
     style="fill:#fde5a9" /><polygon
     transform="translate(-3651,-165.05573)"
     class="fil16"
     points="4590,3770 4653,3837 4700,3920 4589,4063 4539,4142 4539,3741 "
     id="polygon205"
     style="fill:#92569d" /><path
     class="fil25"
     d="m 944,3712.9443 -1,-57 -55,-32 v 89 z m -56,20 h 40 v 41 h -40 z"
     id="path207"
     inkscape:connector-curvature="0"
     style="fill:#28436f" /><polygon
     transform="translate(-3651,-165.05573)"
     class="fil5"
     points="4916,4341 4730,4321 4549,4184 4721,3921 4755,3910 4934,4034 "
     id="polygon209"
     style="fill:#a3ca28" /><polygon
     transform="translate(-3651,-165.05573)"
     class="fil3"
     points="4920,4277 4863,4336 4730,4321 4596,4220 4677,4124 4716,3987 4746,4026 "
     id="polygon211"
     style="fill:#97d1e3" /><polygon
     transform="translate(-3651,-165.05573)"
     class="fil14"
     points="4994,4330 4905,4330 4899,4255 4704,4057 4726,3987 4850,4021 4731,3902 4949,3956 5052,4170 "
     id="polygon213"
     style="fill:#252d3f" /><polygon
     transform="translate(-3651,-165.05573)"
     class="fil7"
     points="4906,4219 4906,4316 5005,4316 4930,4383 4837,4383 4555,4270 4607,4179 4779,4302 4900,4279 4789,4279 4661,4192 4723,3998 "
     id="polygon215"
     style="fill:#1c707b" /><polygon
     transform="translate(-3651,-165.05573)"
     class="fil5"
     points="5054,4312 5155,4312 5002,4024 5002,4290 4930,4383 4873,4383 4921,4399 "
     id="polygon217"
     style="fill:#a3ca28" /><polygon
     transform="translate(-3651,-165.05573)"
     class="fil1"
     points="5165,3915 5165,3965 5050,3965 4971,3919 5046,3984 5179,3984 5240,4170 5155,4316 4774,3921 4721,3921 4713,3891 4782,3891 4696,3805 4637,3674 4692,3630 4869,3821 5048,3891 "
     id="polygon219"
     style="fill:#bae1ed" /><polygon
     transform="translate(-3651,-165.05573)"
     class="fil2"
     points="5113,4069 4960,3973 4977,3957 5215,4094 5240,4170 5155,4316 5002,4158 5002,4024 5103,4086 "
     id="polygon221"
     style="fill:#fefefe" /><polygon
     transform="translate(-3651,-165.05573)"
     class="fil2"
     points="5145,3758 5162,3819 5022,3819 5029,3831 5140,3831 5160,3903 4922,3903 4752,3776 4914,3917 4905,3926 4674,3733 4674,3673 4637,3673 4687,3606 4763,3576 4997,3783 5062,3758 "
     id="polygon223"
     style="fill:#fefefe" /><polygon
     transform="translate(-3651,-165.05573)"
     class="fil26"
     points="4637,3674 4568,3597 4613,3556 4901,3556 5125,3689 5002,3770 5112,3729 5121,3744 4984,3800 4767,3675 4767,3604 4751,3604 4751,3665 4702,3637 "
     id="polygon225"
     style="fill:#fde5a9" /><polygon
     transform="translate(-3651,-165.05573)"
     class="fil2"
     points="4979,3752 5093,3686 4931,3643 4966,3612 4955,3592 4792,3592 4860,3709 4954,3709 "
     id="polygon227"
     style="fill:#fefefe" /><polygon
     transform="translate(-3651,-165.05573)"
     class="fil17"
     points="4990,3655 4954,3707 4906,3707 4868,3655 4900,3602 4961,3602 "
     id="polygon229"
     style="fill:#222428" /><polygon
     transform="translate(-3651,-165.05573)"
     class="fil25"
     points="4911,3694 4951,3694 4951,3639 4942,3627 4899,3627 4883,3655 "
     id="polygon231"
     style="fill:#28436f" /><rect
     class="fil2"
     x="1278"
     y="3461.9443"
     width="22.7202"
     height="22.7202"
     id="rect233"
     style="fill:#fefefe" /><polygon
     transform="translate(-3651,-165.05573)"
     class="fil17"
     points="4639,3837 4679,3906 4574,4090 4574,4091 4560,4113 4539,4148 4539,4223 4495,4235 4555,4269 4648,4157 4579,4197 4565,4183 4641,4151 4721,3921 4682,3853 4595,3764 4480,3709 4574,3769 4574,4046 4603,4016 "
     id="polygon235"
     style="fill:#222428" /><polygon
     transform="translate(-3651,-165.05573)"
     class="fil14"
     points="4887,2932 4796,3023 4738,2921 4865,2887 "
     id="polygon237"
     style="fill:#252d3f" /><polygon
     transform="translate(-3651,-165.05573)"
     class="fil2"
     points="4255,2462 4351,2310 4394,2382 "
     id="polygon239"
     style="fill:#fefefe" /><polygon
     transform="translate(-3651,-165.05573)"
     class="fil5"
     points="4485,2604 4493,2635 4419,2635 4419,2574 "
     id="polygon241"
     style="fill:#a3ca28" /><polygon
     transform="translate(-3651,-165.05573)"
     class="fil21"
     points="5632,2286 6004,1673 6137,1903 5674,2316 "
     id="polygon243"
     style="fill:#dc3f6a" /><polygon
     transform="translate(-3651,-165.05573)"
     class="fil21"
     points="4370,3065 4399,2999 4443,3030 "
     id="polygon245"
     style="fill:#dc3f6a" /><polygon
     transform="translate(-3651,-165.05573)"
     class="fil2"
     points="6822,3595 6966,3450 6800,3406 6708,3565 "
     id="polygon247"
     style="fill:#fefefe" /><polygon
     transform="translate(-3651,-165.05573)"
     class="fil12"
     points="6217,2901 6314,2826 6499,3075 6484,3101 "
     id="polygon249"
     style="fill:#684388" /><polygon
     transform="translate(-3651,-165.05573)"
     class="fil7"
     points="6923,1711 7072,1969 6454,2111 6394,2044 "
     id="polygon251"
     style="fill:#1c707b" /><polygon
     transform="translate(-3651,-165.05573)"
     class="fil2"
     points="7449,1959 6641,2339 6658,2356 7453,2221 "
     id="polygon253"
     style="fill:#fefefe" /><polygon
     transform="translate(-3651,-165.05573)"
     class="fil12"
     points="7225,3149 7990,3149 8049,2927 7225,3089 "
     id="polygon255"
     style="fill:#684388" /><polygon
     transform="translate(-3651,-165.05573)"
     class="fil18"
     points="6402,1128 6535,1205 6371,1368 6167,1250 "
     id="polygon257"
     style="fill:#f7c199" /><polygon
     transform="translate(-3651,-165.05573)"
     class="fil18"
     points="7293,182 6940,373 7122,478 "
     id="polygon259"
     style="fill:#f7c199;fill-opacity:1" /><polygon
     transform="translate(-3651,-165.05573)"
     class="fil17"
     points="8100,2206 7211,2212 8004,2372 "
     id="polygon261"
     style="fill:#222428" /><polygon
     transform="translate(-3651,-165.05573)"
     class="fil9"
     points="6751,1215 6814,1278 6656,1341 6633,1320 "
     id="polygon263"
     style="fill:#fcef0f" /><polygon
     transform="translate(-3651,-165.05573)"
     class="fil7"
     points="7956,643 8145,282 7180,1203 7449,1160 7909,683 7868,643 "
     id="polygon265"
     style="fill:#1c707b" /><polygon
     transform="translate(-3651,-165.05573)"
     class="fil5"
     points="8641,6476 9115,7194 9901,7405 8813,6415 "
     id="polygon267"
     style="fill:#a3ca28" /><polygon
     transform="translate(-3651,-165.05573)"
     class="fil5"
     points="8631,6417 8751,6357 8634,6248 8571,6327 "
     id="polygon269"
     style="fill:#a3ca28" /><polygon
     transform="translate(-3651,-165.05573)"
     class="fil5"
     points="9482,7356 9781,7406 10034,7660 9542,7459 "
     id="polygon271"
     style="fill:#a3ca28" /><polygon
     transform="translate(-3651,-165.05573)"
     class="fil6"
     points="11192,7140 11322,7068 11570,7089 11313,7177 "
     id="polygon273"
     style="fill:#ab2933" /><polygon
     transform="translate(-3651,-165.05573)"
     class="fil12"
     points="8330,4052 8538,4052 8483,4148 8311,4092 "
     id="polygon299"
     style="fill:#684388" /><polygon
     transform="translate(-3651,-165.05573)"
     class="fil7"
     points="8338,3155 8578,3049 8386,2956 8301,3005 "
     id="polygon301"
     style="fill:#1c707b" /><polygon
     transform="translate(-3651,-165.05573)"
     class="fil6"
     points="8493,1457 8185,1496 8221,1382 "
     id="polygon303"
     style="fill:#ab2933" /><polygon
     transform="translate(-3651,-165.05573)"
     class="fil18"
     points="7498,4205 7611,4271 7535,4306 7477,4226 "
     id="polygon307"
     style="fill:#f7c199" /><polygon
     transform="translate(-3651,-165.05573)"
     class="fil8"
     points="8110,5083 8177,5006 8075,4999 8060,5054 "
     id="polygon309"
     style="fill:#0e9966" /><polygon
     transform="translate(-3651,-165.05573)"
     class="fil14"
     points="7920,5512 8043,5463 8067,5591 7969,5588 "
     id="polygon311"
     style="fill:#252d3f" /><polygon
     transform="translate(-3651,-165.05573)"
     class="fil6"
     points="9185,5765 9256,5724 9336,5783 9286,5893 "
     id="polygon313"
     style="fill:#ab2933" /><polygon
     transform="translate(-3651,-165.05573)"
     class="fil9"
     points="7155,1598 7231,1731 7597,1499 7503,1303 "
     id="polygon315"
     style="fill:#fcef0f" /><polygon
     transform="translate(-3651,-165.05573)"
     class="fil5"
     points="9473,6641 9555,6516 9877,6691 10151,6764 10083,6882 "
     id="polygon317"
     style="fill:#a3ca28" /><polygon
     transform="translate(-3651,-165.05573)"
     class="fil5"
     points="9527,6481 9393,6408 9394,6543 9459,6578 "
     id="polygon319"
     style="fill:#a3ca28" /></g>
</svg>